# xmcd CD database file
#
# Track frame offsets:
#	150
#	19504
#	39053
#	60645
#	80944
#	99707
#	122776
#	147073
#	166721
#	187510
#	203866
#	226717
#	255760
#	276087
#	296449
#
# Disc length: 4246 seconds
#
# Revision: 0
# Processed by: cddbd v1.5PL3 Copyright (c) Steve Scherf et al.
# Submitted via: CDex 1.50beta8
#
DISCID=b710940f
DTITLE=Fernanda Porto - Fernanda Porto
DYEAR=1900
DGENRE=Jazz
TTITLE0=Sambassim
TTITLE1=So Tinda De Ser Com Voce
TTITLE2=Eletricidade
TTITLE3=Baque Virade
TTITLE4=Amor Errado
TTITLE5=Tudo De Bom
TTITLE6=Vilarejo Intimo
TTITLE7=De Costas Pro Mundo
TTITLE8=Outro Lugar Do Mundo
TTITLE9=Tanta Besteira
TTITLE10=O Amor Nao Cala
TTITLE11=Cainagaradaia(XRS)
TTITLE12=Jeito Novo(Not The Same)
TTITLE13=Sambassim(Mad Zoo 2003 Remix)
TTITLE14=So Tinda De Ser Com Voce(Mad Zoo 2003 Remix)
EXTD=
EXTT0=
EXTT1=
EXTT2=
EXTT3=
EXTT4=
EXTT5=
EXTT6=
EXTT7=
EXTT8=
EXTT9=
EXTT10=
EXTT11=
EXTT12=
EXTT13=
EXTT14=
PLAYORDER=
